<svg id="Calque_1" data-name="Calque 1" xmlns="http://www.w3.org/2000/svg" viewBox="0 0 162.57 156.33"><defs><style>.cls-1{fill:#f3702a;}</style></defs><title>SonarCloud icon</title><path class="cls-1" d="M131.83,70.83a32.89,32.89,0,0,0-15.68-10.54c0-.13,0-.25,0-.38a32.74,32.74,0,1,0-65.48,0c0,.15,0,.29,0,.44a32.74,32.74,0,1,0,32.84,54.53,32.73,32.73,0,0,0,48.3-44ZM106.5,116.07A24.52,24.52,0,0,1,82,91.58a4.12,4.12,0,0,0-8.24,0,32.54,32.54,0,0,0,4.62,16.75A24.48,24.48,0,1,1,69,68.59l.1,0a11.46,11.46,0,0,1,2.67,1.28,4.12,4.12,0,0,0,5.36-6.26,18.46,18.46,0,0,0-5.33-2.81,32.63,32.63,0,0,0-11.28-2c-.53,0-1.05,0-1.58,0a24.49,24.49,0,1,1,38.67,21,4.12,4.12,0,1,0,4.78,6.71,32.84,32.84,0,0,0,12.57-18,24.5,24.5,0,0,1-8.47,47.48Z"/></svg>